<svg width="169" height="41" viewBox="0 0 169 41" fill="none" xmlns="http://www.w3.org/2000/svg">
<path d="M66.8242 25.9783C66.8242 30.0167 70.1293 33.3017 74.1878 33.3017H92.7523C96.8108 33.3017 100.116 30.0167 100.116 25.9783V7.31331C100.116 3.28496 96.8108 0 92.7523 0H74.1878C70.1293 0 66.8242 3.28496 66.8242 7.32336V25.9783Z" fill="#E51A92"/>
<path d="M92.7825 30.9218H74.1777C71.4352 30.9218 69.2051 28.7017 69.2051 25.9793V7.32435C69.2051 4.61199 71.4352 2.38184 74.1777 2.38184H92.7825C95.5149 2.38184 97.7451 4.60195 97.7451 7.32435V25.9793C97.7451 28.7017 95.5149 30.9218 92.7825 30.9218Z" fill="white"/>
<path d="M78.1361 5.94712C78.1361 6.08776 78.1662 6.23845 78.2164 6.359L81.0895 14.265L73.1835 11.3819C73.0529 11.3316 72.9123 11.3116 72.7616 11.3116C72.0986 11.3116 71.5762 11.844 71.5762 12.497V20.7847C71.5762 21.4377 72.1086 21.9701 72.7616 21.9701C72.9123 21.9701 73.0529 21.94 73.1835 21.8897L81.0895 19.0167L78.2164 26.9227C78.1662 27.0533 78.1361 27.1939 78.1361 27.3446C78.1361 28.0076 78.6685 28.53 79.3214 28.53H87.6092C88.2622 28.53 88.7946 27.9976 88.7946 27.3446C88.7946 27.2039 88.7645 27.0633 88.7243 26.9227L85.8411 19.0167L93.7472 21.8897C93.8778 21.94 94.0184 21.9701 94.159 21.9701C94.812 21.9701 95.3545 21.4377 95.3545 20.7847V12.497C95.3545 11.844 94.8221 11.3116 94.159 11.3116C94.0184 11.3116 93.8778 11.3417 93.7472 11.3819L85.8411 14.265L88.7243 6.359C88.7745 6.2284 88.7946 6.08776 88.7946 5.94712C88.7946 5.29414 88.2622 4.76172 87.6092 4.76172H79.3214C78.6685 4.76172 78.1361 5.29414 78.1361 5.94712Z" fill="#0066AA"/>
<path d="M82.0439 14.2651H84.8969V15.3199H83.2796V16.1437H84.8065V17.1583H83.2796V19.0268H82.0439V14.2651Z" fill="white"/>
<path d="M23.3567 11.4025H27.0435V13.5623C27.4453 12.7084 27.9677 12.0655 28.6307 11.6235C29.2938 11.1815 30.0171 10.9604 30.8006 10.9604C31.3531 10.9604 31.9458 11.1011 32.5486 11.4025L31.2125 15.0993C30.7002 14.8482 30.2883 14.7276 29.9668 14.7276C29.3038 14.7276 28.7513 15.1395 28.2892 15.9532C27.8371 16.7769 27.6061 18.3843 27.6061 20.7752V21.609L27.6161 28.5405H23.3467V11.3924L23.3567 11.4025Z" fill="#0066AA"/>
<path d="M33.3613 11.4029H37.7111V19.6605C37.7111 21.2678 37.8216 22.3829 38.0427 23.0058C38.2637 23.6286 38.6253 24.1208 39.1075 24.4624C39.5997 24.814 40.2025 24.9848 40.9157 24.9848C41.629 24.9848 42.2418 24.814 42.7441 24.4724C43.2464 24.1309 43.618 23.6286 43.8591 22.9656C44.0299 22.4733 44.1203 21.4185 44.1203 19.8012V11.4029H48.43V18.666C48.43 21.6596 48.1889 23.709 47.7167 24.814C47.1441 26.1601 46.2902 27.1948 45.1651 27.9081C44.04 28.6213 42.6135 28.983 40.8856 28.983C39.007 28.983 37.4901 28.5611 36.3248 27.7172C35.1595 26.8734 34.3458 25.7081 33.8737 24.2012C33.5321 23.1564 33.3613 21.2678 33.3613 18.5253V11.3828V11.4029Z" fill="#0066AA"/>
<path d="M50.0282 11.4023H63.158L55.4529 24.9038H62.716V28.5404H48.8428L56.578 15.0389H50.0181V11.4023H50.0282Z" fill="#0066AA"/>
<path d="M126.727 11.4023H140.068L132.363 24.9038H139.626V28.5404H125.753L133.498 15.0389H126.727V11.4023Z" fill="#0066AA"/>
<path d="M141.675 11.4029H146.025V19.6605C146.025 21.2678 146.135 22.3829 146.356 23.0058C146.577 23.6286 146.929 24.1208 147.421 24.4624C147.903 24.814 148.516 24.9848 149.229 24.9848C149.943 24.9848 150.556 24.814 151.048 24.4724C151.55 24.1309 151.922 23.6286 152.163 22.9656C152.344 22.4733 152.424 21.4185 152.424 19.8012V11.4029H156.724V18.666C156.724 21.6596 156.493 23.709 156.02 24.814C155.438 26.1601 154.594 27.1948 153.469 27.9081C152.344 28.6213 150.917 28.983 149.189 28.983C147.311 28.983 145.784 28.5611 144.629 27.7172C143.473 26.8734 142.65 25.7081 142.177 24.2012C141.836 23.1564 141.665 21.2678 141.665 18.5253V11.3828L141.675 11.4029Z" fill="#0066AA"/>
<path d="M159.104 4.76172H163.404V28.5501H159.104V4.76172Z" fill="#0066AA"/>
<path d="M169 26.3206C169 26.7224 168.899 27.1041 168.698 27.4457C168.498 27.7973 168.226 28.0685 167.875 28.2694C167.523 28.4704 167.151 28.5708 166.74 28.5708C166.328 28.5708 165.966 28.4704 165.614 28.2694C165.263 28.0685 164.992 27.7973 164.791 27.4457C164.59 27.0941 164.489 26.7224 164.489 26.3206C164.489 25.9187 164.59 25.547 164.791 25.1954C164.992 24.8438 165.263 24.5726 165.614 24.3717C165.966 24.1708 166.348 24.0703 166.74 24.0703C167.131 24.0703 167.523 24.1708 167.875 24.3717C168.226 24.5726 168.498 24.8438 168.698 25.1954C168.899 25.547 169 25.9187 169 26.3206ZM168.538 26.3306C168.538 25.8283 168.357 25.4064 168.015 25.0548C167.664 24.7132 167.242 24.5324 166.75 24.5324C166.257 24.5324 165.825 24.7032 165.474 25.0548C165.122 25.4064 164.951 25.8183 164.951 26.3105C164.951 26.632 165.032 26.9233 165.192 27.1945C165.353 27.4658 165.564 27.6868 165.855 27.8475C166.127 28.0083 166.428 28.0886 166.75 28.0886C167.071 28.0886 167.372 28.0083 167.644 27.8475C167.925 27.6868 168.146 27.4758 168.307 27.2046C168.467 26.9334 168.548 26.642 168.548 26.3306H168.538ZM165.815 25.0849H166.91C167.141 25.0849 167.312 25.105 167.413 25.1653C167.523 25.2155 167.603 25.2959 167.674 25.4064C167.734 25.5169 167.774 25.6475 167.774 25.8082C167.774 25.9388 167.754 26.0493 167.714 26.1297C167.674 26.2101 167.603 26.2904 167.493 26.3708C167.583 26.421 167.644 26.4813 167.674 26.5416C167.704 26.6018 167.734 26.7224 167.734 26.8831C167.744 27.1845 167.754 27.3653 167.774 27.4156C167.784 27.4658 167.814 27.516 167.875 27.5562H167.262C167.232 27.4859 167.212 27.4356 167.202 27.3854C167.202 27.3452 167.192 27.2649 167.182 27.1544C167.182 26.9334 167.171 26.8028 167.151 26.7525C167.131 26.7023 167.101 26.6621 167.061 26.642C167.011 26.6119 166.93 26.6018 166.8 26.6018H166.358V27.5662H165.825V25.095L165.815 25.0849ZM166.348 25.5571V26.1397H166.81C166.981 26.1397 167.101 26.1196 167.151 26.0694C167.212 26.0192 167.242 25.9489 167.242 25.8384C167.242 25.7279 167.212 25.6575 167.161 25.6174C167.101 25.5772 166.991 25.547 166.81 25.547H166.348V25.5571Z" fill="#0066AA"/>
<path d="M23.6172 9.39212V5.61492H23.1953V4.74094H23.6172V4.67062C23.6172 3.86696 23.6373 3.6359 23.6474 3.56558C23.6775 3.31444 23.778 3.12357 23.9487 2.98293C24.1296 2.84229 24.3707 2.77197 24.7122 2.77197C24.9433 2.77197 25.2045 2.8222 25.4857 2.92265V3.69618C25.3451 3.656 25.2246 3.64595 25.1341 3.64595C24.9734 3.64595 24.8629 3.67608 24.7825 3.7464C24.7223 3.80668 24.6921 3.90714 24.6921 4.07792V4.74094H25.4556V5.61492H24.6921V9.39212H23.6273H23.6172Z" fill="#0066AA"/>
<path d="M27.9571 9.51338C27.3544 9.51338 26.8521 9.28233 26.4 8.82022C25.9681 8.35812 25.7471 7.76542 25.7471 7.07226C25.7471 6.3791 25.958 5.75626 26.38 5.30421C26.8019 4.85215 27.3142 4.62109 27.917 4.62109C28.1982 4.62109 28.4494 4.67133 28.7005 4.78183C28.9416 4.88229 29.1727 5.04301 29.3836 5.25397L29.5042 5.37453V4.74165H30.559V9.39283H29.5042V8.79009L29.3836 8.90059C29.1626 9.11155 28.9316 9.27228 28.7005 9.37274C28.4695 9.46315 28.2284 9.51338 27.9571 9.51338ZM28.1681 5.58549C27.7763 5.58549 27.4448 5.72612 27.1937 6.00741C26.9325 6.27864 26.8019 6.64029 26.8019 7.06221C26.8019 7.48414 26.9325 7.85583 27.2037 8.13711C27.4649 8.41839 27.7964 8.55903 28.1781 8.55903C28.5599 8.55903 28.9014 8.41839 29.1626 8.13711C29.4238 7.86587 29.5544 7.49418 29.5544 7.05217C29.5544 6.61015 29.4238 6.25855 29.1626 5.98732C28.9014 5.71608 28.5699 5.57544 28.1681 5.57544V5.58549Z" fill="#0066AA"/>
<path d="M31.1018 9.39283V4.74165H31.9859V5.27407L32.1165 5.30421C32.2169 5.0832 32.3676 4.91242 32.5384 4.79187C32.7192 4.67132 32.9 4.62109 33.111 4.62109C33.2416 4.62109 33.3722 4.65124 33.5128 4.71151L33.1914 5.61562C33.0708 5.56539 32.9704 5.53526 32.8799 5.53526C32.669 5.53526 32.4882 5.66585 32.3475 5.917C32.2169 6.1581 32.1466 6.61015 32.1466 7.30331V7.53437V9.40288H31.0918L31.1018 9.39283Z" fill="#0066AA"/>
<path d="M40.0117 9.39262V7.03187C40.0117 6.46931 39.9414 6.09762 39.7907 5.88666C39.64 5.67569 39.419 5.56519 39.1277 5.56519C38.8966 5.56519 38.6957 5.62546 38.5249 5.75606C38.3542 5.8766 38.2236 6.04738 38.1432 6.26839C38.0628 6.47935 38.0226 6.82091 38.0226 7.29306V9.38258H36.9578V7.13233C36.9578 6.70036 36.9277 6.3789 36.8573 6.17798C36.787 5.96702 36.6866 5.81634 36.5459 5.71588C36.4053 5.61542 36.2445 5.56519 36.0436 5.56519C35.8327 5.56519 35.6318 5.62546 35.461 5.75606C35.2902 5.8766 35.1596 6.05744 35.0692 6.28849C34.9888 6.51954 34.9486 6.87113 34.9486 7.33324V9.39262H33.8838V4.74144H34.9486V5.40446L35.0692 5.27386C35.2701 5.05286 35.4911 4.89213 35.7322 4.78162C35.9733 4.67112 36.2345 4.62089 36.5258 4.62089C36.8172 4.62089 37.0783 4.69121 37.2993 4.83185C37.5304 4.97249 37.7112 5.1734 37.8619 5.44464L37.9222 5.5451L37.9825 5.44464C38.1633 5.1734 38.3943 4.96244 38.6555 4.8218C38.9268 4.68116 39.2181 4.61084 39.5295 4.61084C39.8409 4.61084 40.1423 4.69121 40.3934 4.8419C40.6446 4.99258 40.8154 5.18345 40.9259 5.43459C41.0364 5.67569 41.0866 6.07753 41.0866 6.65014V9.39262H40.0217H40.0117Z" fill="#0066AA"/>
<path d="M43.8194 9.51338C43.2167 9.51338 42.7144 9.28233 42.2724 8.82022C41.8304 8.34807 41.6094 7.76542 41.6094 7.07226C41.6094 6.3791 41.8203 5.75626 42.2423 5.30421C42.6742 4.8421 43.1765 4.62109 43.7793 4.62109C44.0605 4.62109 44.3217 4.67133 44.5628 4.78183C44.814 4.88229 45.035 5.04301 45.2359 5.25397L45.3564 5.37453V4.74165H46.4213V9.39283H45.3564V8.79009L45.2359 8.90059C45.0048 9.1216 44.7838 9.27228 44.5528 9.37274C44.3318 9.46315 44.0806 9.51338 43.8094 9.51338H43.8194ZM44.0304 5.58549C43.6386 5.58549 43.3071 5.72612 43.056 6.00741C42.7948 6.27864 42.6742 6.63025 42.6742 7.06221C42.6742 7.49418 42.8048 7.85583 43.066 8.13711C43.3272 8.41839 43.6587 8.55903 44.0404 8.55903C44.4222 8.55903 44.7637 8.41839 45.0249 8.14716C45.2861 7.87592 45.4167 7.51427 45.4167 7.06221C45.4167 6.61015 45.2861 6.2686 45.0249 5.99737C44.7637 5.72613 44.4222 5.58549 44.0304 5.58549Z" fill="#0066AA"/>
<path d="M49.4755 9.51317C48.6517 9.51317 48.0088 9.27207 47.5467 8.78988C47.0846 8.30768 46.8535 7.73507 46.8535 7.0821C46.8535 6.63004 46.964 6.20812 47.1951 5.83642C47.4161 5.45468 47.7375 5.15331 48.1394 4.94235C48.5513 4.72135 48.9933 4.61084 49.4956 4.61084C49.9677 4.61084 50.3796 4.70126 50.7412 4.89213C51.0828 5.06291 51.3641 5.304 51.5951 5.61542L50.7111 6.09762C50.5403 5.91679 50.3494 5.7862 50.1686 5.70583C49.9677 5.62547 49.7467 5.58528 49.4956 5.58528C49.0334 5.58528 48.6517 5.72592 48.3604 6.0072C48.0691 6.28848 47.9184 6.65013 47.9184 7.09214C47.9184 7.53416 48.059 7.87571 48.3403 8.1369C48.6115 8.40814 48.9832 8.54878 49.4353 8.54878C49.9677 8.54878 50.3997 8.36795 50.7111 8.01635L51.5449 8.58896C51.0526 9.1917 50.3494 9.50313 49.4654 9.50313L49.4755 9.51317Z" fill="#0066AA"/>
<path d="M52.3385 9.39212V4.74094H53.4033V9.39212H52.3385ZM52.8809 4.18842C52.6901 4.18842 52.5293 4.1181 52.3787 3.97746C52.2481 3.83682 52.1777 3.66604 52.1777 3.46512C52.1777 3.27426 52.2481 3.11353 52.3787 2.97288C52.5092 2.83224 52.68 2.77197 52.8709 2.77197C53.0618 2.77197 53.2225 2.84229 53.3631 2.97288C53.4937 3.11353 53.5641 3.28431 53.5641 3.48522C53.5641 3.68614 53.4937 3.84687 53.3631 3.98751C53.2325 4.12815 53.0618 4.19847 52.8809 4.19847V4.18842Z" fill="#0066AA"/>
<path d="M56.1859 9.51338C55.5932 9.51338 55.0709 9.28233 54.6288 8.82022C54.1868 8.34807 53.9658 7.76542 53.9658 7.07226C53.9658 6.3791 54.1768 5.76631 54.5987 5.30421C55.0307 4.8421 55.533 4.62109 56.1458 4.62109C56.417 4.62109 56.6882 4.67133 56.9293 4.78183C57.1805 4.89233 57.4015 5.04301 57.6024 5.25397L57.7229 5.37453V4.74165H58.7878V9.39283H57.7229V8.79009L57.6024 8.90059C57.3814 9.11155 57.1503 9.27228 56.9193 9.37274C56.6983 9.46315 56.4471 9.51338 56.1759 9.51338H56.1859ZM56.3969 5.58549C56.0051 5.58549 55.6736 5.72612 55.4225 6.00741C55.1713 6.27864 55.0407 6.63025 55.0407 7.06221C55.0407 7.49418 55.1713 7.85583 55.4325 8.13711C55.7037 8.41839 56.0252 8.55903 56.4069 8.55903C56.7887 8.55903 57.1302 8.41839 57.3914 8.13711C57.6526 7.86587 57.7832 7.50423 57.7832 7.05217C57.7832 6.60011 57.6526 6.25855 57.3914 5.98732C57.1302 5.71608 56.7987 5.57544 56.3969 5.57544V5.58549Z" fill="#0066AA"/>
<path d="M60.9066 9.51317C60.2435 9.51317 59.7312 9.27207 59.3193 8.76978L59.9723 8.06658C60.1029 8.20722 60.2636 8.32777 60.4344 8.41818C60.6353 8.52869 60.8061 8.57892 60.9769 8.57892C61.1577 8.57892 61.2984 8.53873 61.4089 8.44832C61.5194 8.35791 61.5796 8.25745 61.5796 8.1369C61.5796 7.92594 61.3888 7.71498 61.0171 7.52411L60.6052 7.3232C59.8518 6.94146 59.4801 6.47935 59.4801 5.91679C59.4801 5.55514 59.6207 5.25377 59.8919 4.99258C60.1732 4.74144 60.5349 4.61084 60.9668 4.61084C61.2682 4.61084 61.5495 4.67112 61.8107 4.81176C62.0618 4.93231 62.2728 5.11313 62.4436 5.32409L61.7906 5.97706C61.4892 5.69578 61.218 5.55514 60.9668 5.55514C60.8162 5.55514 60.6956 5.58528 60.6052 5.6556C60.5148 5.72592 60.4646 5.81634 60.4646 5.92684C60.4646 6.00721 60.4947 6.08757 60.555 6.14785C60.6152 6.21817 60.7458 6.29853 60.9367 6.38894L61.3787 6.60995C61.8308 6.83096 62.1422 7.06201 62.3029 7.28302C62.4737 7.51407 62.5541 7.76521 62.5541 8.07663C62.5541 8.47846 62.4034 8.82001 62.102 9.09125C61.8006 9.37253 61.4089 9.50313 60.8865 9.50313L60.9066 9.51317Z" fill="#0066AA"/>
<path d="M120.659 28.5702H125.2L116.771 4.76172H112.673L112.452 5.36446L104.234 28.5702H108.775L110.493 23.7281H118.941L120.659 28.5702ZM112.02 19.4486L114.722 11.8138L117.424 19.4486H112.02Z" fill="#0066AA"/>
<path d="M18.2029 21.6386C16.7965 23.4871 14.5663 24.6725 12.065 24.6725C7.80555 24.6725 4.33977 21.2167 4.33977 16.9473C4.33977 12.6778 7.79551 9.22209 12.065 9.22209C14.6266 9.22209 16.897 10.4678 18.2933 12.3865L21.7892 9.82484C19.5993 6.8312 16.0531 4.88232 12.0549 4.88232C5.39457 4.88232 0 10.2769 0 16.9372C0 23.5976 5.39457 28.9921 12.0549 28.9921C15.9627 28.9921 19.4285 27.1337 21.6386 24.2505L18.1929 21.6186L18.2029 21.6386Z" fill="#0066AA"/>
<path d="M113.667 33.5728C113.667 33.5728 113.597 33.5728 113.557 33.5728C113.517 33.5728 113.476 33.5728 113.426 33.5728C113.406 33.5728 113.386 33.5728 113.366 33.5728C113.346 33.5728 113.326 33.5728 113.306 33.5728C113.245 33.5728 113.185 33.5728 113.125 33.5728C113.064 33.5728 113.004 33.5728 112.944 33.5728C112.422 33.5728 111.959 33.6933 111.558 33.9344C111.146 34.1755 110.774 34.5171 110.422 34.949C110.201 34.4769 109.93 34.1253 109.589 33.9043C109.257 33.6833 108.845 33.5728 108.343 33.5728H108.172C107.67 33.5828 107.248 33.6833 106.906 33.8842C106.575 34.0851 106.253 34.3664 105.952 34.728C105.932 34.7682 105.902 34.7983 105.872 34.8385C105.842 34.8787 105.811 34.9189 105.781 34.949V33.8239H104.274V40.7354H105.862V37.2596C105.862 37.1591 105.862 37.0486 105.882 36.9481C105.902 36.4559 106.022 35.9938 106.223 35.5719C106.424 35.1499 106.836 34.9289 107.479 34.9088H107.579C108.152 34.9088 108.524 35.1098 108.695 35.5015C108.865 35.9034 108.956 36.3353 108.976 36.8075V40.7253H110.583V37.0988C110.583 36.6267 110.674 36.1847 110.814 35.7627C110.955 35.3408 111.306 35.0696 111.859 34.9591C111.879 34.9591 111.909 34.9591 111.929 34.9591C111.949 34.9591 111.98 34.9591 112.02 34.9591C112.03 34.9591 112.04 34.9591 112.06 34.9591C112.06 34.9591 112.08 34.9591 112.09 34.9591C112.12 34.9591 112.16 34.9591 112.201 34.9591C112.241 34.9591 112.281 34.9591 112.311 34.9591C112.371 34.9591 112.422 34.9591 112.472 34.9591C112.522 34.9591 112.572 34.9691 112.632 34.9892C112.743 35.0093 112.864 35.0394 112.964 35.0897C113.074 35.1298 113.165 35.1901 113.235 35.2705C113.366 35.391 113.456 35.5618 113.517 35.7627C113.577 35.9636 113.617 36.1646 113.637 36.3755C113.647 36.4559 113.657 36.5363 113.657 36.6166V40.7756H115.234V36.1244C115.234 35.5618 115.144 35.0394 114.973 34.5773C114.802 34.1152 114.36 33.8038 113.657 33.6531L113.667 33.5728Z" fill="#0066AA"/>
<path d="M121.382 33.7541C121.322 33.734 121.261 33.7139 121.201 33.6938C121.141 33.6737 121.07 33.6537 121.02 33.6336C120.839 33.5833 120.659 33.5532 120.478 33.5331C120.297 33.513 120.126 33.4929 119.955 33.4929C119.101 33.4929 118.338 33.7642 117.655 34.3066C116.972 34.8491 116.56 35.5824 116.409 36.5067C116.409 36.5368 116.409 36.577 116.409 36.6071C116.409 36.6372 116.399 36.6774 116.379 36.7076V36.7779C116.379 36.7779 116.379 36.8281 116.359 36.8482C116.349 36.9286 116.339 37.0089 116.339 37.0994C116.339 37.1898 116.339 37.2701 116.339 37.3505C116.339 38.2948 116.64 39.1185 117.233 39.8117C117.836 40.5049 118.649 40.8966 119.684 40.9569L120.026 40.9368C120.799 40.9368 121.452 40.7661 121.995 40.4145C122.537 40.0729 123.009 39.5606 123.411 38.8975L122.095 38.1542C121.854 38.5459 121.553 38.8774 121.201 39.1487C120.839 39.4199 120.438 39.5505 119.996 39.5505C119.925 39.5505 119.855 39.5505 119.775 39.5204C119.694 39.5003 119.604 39.4902 119.513 39.4802C118.981 39.3697 118.609 39.1286 118.378 38.7569C118.157 38.3852 118.017 37.9633 117.976 37.4811H123.501V37.3405C123.501 36.5569 123.361 35.8336 123.07 35.1706C122.788 34.5075 122.226 34.0354 121.392 33.7441L121.382 33.7541ZM118.077 36.3761C118.217 35.9039 118.428 35.5322 118.73 35.271C119.031 35.0098 119.443 34.8692 119.975 34.8692C120.508 34.8692 120.94 34.9897 121.251 35.2409C121.553 35.492 121.743 35.8637 121.834 36.3761H118.087H118.077Z" fill="#0066AA"/>
<path d="M134.471 33.6333C134.331 33.6132 134.2 33.5931 134.06 33.5831C133.919 33.573 133.788 33.563 133.658 33.563C132.683 33.563 131.809 33.8845 131.036 34.5274C130.272 35.1703 129.891 36.0644 129.891 37.1895C129.891 38.3146 130.252 39.269 130.986 39.932C131.719 40.6051 132.573 40.9366 133.547 40.9366C133.718 40.9366 133.899 40.9265 134.09 40.9064C134.281 40.8863 134.471 40.8462 134.672 40.7859C134.823 40.7558 134.974 40.7055 135.124 40.6553C135.275 40.6051 135.426 40.5448 135.577 40.4745V38.6562C135.325 38.9274 135.044 39.1484 134.743 39.3092C134.441 39.4699 134.11 39.5503 133.748 39.5503C133.728 39.5503 133.698 39.5503 133.658 39.5503C133.628 39.5503 133.587 39.5402 133.557 39.5302C133.547 39.5302 133.537 39.5302 133.517 39.5302C133.507 39.5302 133.487 39.5302 133.467 39.5302C133.447 39.5302 133.417 39.5302 133.397 39.5302C133.377 39.5302 133.346 39.5302 133.326 39.5302C132.724 39.4498 132.282 39.1886 131.98 38.7566C131.679 38.3247 131.528 37.8124 131.528 37.2297C131.528 36.5064 131.739 35.9539 132.171 35.5721C132.603 35.1904 133.095 34.9995 133.648 34.9995C133.738 34.9995 133.829 34.9995 133.919 35.0196C134.009 35.0196 134.1 35.0397 134.19 35.0498C134.431 35.1 134.672 35.1804 134.914 35.3009C135.155 35.4214 135.376 35.5822 135.566 35.7731V34.005C135.396 33.9246 135.215 33.8543 135.024 33.794C134.833 33.7338 134.642 33.6936 134.461 33.6534L134.471 33.6333Z" fill="#0066AA"/>
<path d="M142.027 37.6716C142.027 38.3045 141.906 38.7767 141.655 39.068C141.404 39.3694 140.942 39.5301 140.259 39.5502C139.606 39.5502 139.144 39.3895 138.882 39.068C138.621 38.7465 138.491 38.2744 138.491 37.6716V33.7839H136.923V37.2598C136.923 37.2598 136.903 37.2999 136.903 37.31V37.3401C136.903 38.4854 137.154 39.3694 137.657 39.9922C138.159 40.6151 139.033 40.9365 140.289 40.9365C141.544 40.9365 142.428 40.605 142.911 39.952C143.393 39.2991 143.624 38.3748 143.624 37.1894V33.7839H142.017V37.6716H142.027Z" fill="#0066AA"/>
<path d="M145.914 29.9463C145.623 29.9463 145.412 30.0367 145.261 30.2276C145.11 30.4084 145.02 30.6093 145 30.8303V30.9207C145 31.1618 145.07 31.3828 145.221 31.5737C145.372 31.7746 145.603 31.865 145.914 31.865C146.226 31.865 146.457 31.7646 146.617 31.5737C146.768 31.3728 146.848 31.1618 146.848 30.9207V30.8303C146.828 30.6093 146.738 30.4084 146.577 30.2276C146.426 30.0467 146.195 29.9463 145.914 29.9463Z" fill="#0066AA"/>
<path d="M146.678 33.7839H145.101V40.6954H146.678V33.7839Z" fill="#0066AA"/>
<path d="M153.358 34.9096C153.147 34.4575 152.836 34.116 152.404 33.8849C151.982 33.6438 151.53 33.5333 151.058 33.5333C150.988 33.5333 150.917 33.5333 150.857 33.5333C150.797 33.5333 150.736 33.5434 150.676 33.5635C149.983 33.6539 149.36 34.0055 148.787 34.6283C148.215 35.2411 147.934 36.1251 147.934 37.2804V37.4311C147.934 37.4311 147.934 37.4512 147.954 37.4713V37.642C148.004 38.516 148.285 39.2795 148.798 39.9425C149.32 40.5955 150.043 40.9371 150.977 40.9672L151.068 40.9471C151.56 40.9471 152.002 40.8567 152.374 40.6658C152.746 40.4749 153.077 40.1937 153.368 39.8119V40.706H154.956V29.957H153.368V34.9196L153.358 34.9096ZM152.846 38.9279C152.464 39.3398 152.052 39.5608 151.6 39.611H151.409C150.947 39.601 150.525 39.4 150.154 39.0183C149.772 38.6366 149.581 38.074 149.581 37.3507C149.581 37.3206 149.581 37.2804 149.581 37.2302C149.581 37.1799 149.591 37.1297 149.611 37.0694C149.611 37.0292 149.611 36.979 149.611 36.9288C149.611 36.8786 149.611 36.8384 149.611 36.8082C149.672 36.2658 149.862 35.8238 150.184 35.4822C150.505 35.1406 150.937 34.9598 151.46 34.9598H151.801C152.374 35.0301 152.786 35.2813 153.027 35.7333C153.268 36.1754 153.388 36.6676 153.388 37.19C153.388 37.9434 153.198 38.516 152.816 38.9279H152.846Z" fill="#0066AA"/>
<path d="M161.867 33.7848V34.91C161.656 34.4579 161.345 34.1163 160.913 33.8853C160.491 33.6442 160.039 33.5337 159.567 33.5337C159.496 33.5337 159.436 33.5337 159.366 33.5337C159.305 33.5337 159.245 33.5437 159.185 33.5638C158.492 33.6542 157.859 34.0058 157.296 34.6287C156.724 35.2415 156.442 36.1255 156.442 37.2808V37.4315C156.442 37.4315 156.442 37.4515 156.462 37.4716V37.6424C156.503 38.5164 156.794 39.2799 157.306 39.9429C157.829 40.5959 158.552 40.9374 159.496 40.9676L159.567 40.9475C160.059 40.9475 160.491 40.8571 160.873 40.6662C161.244 40.4753 161.576 40.194 161.867 39.8123V40.7064H163.474V33.7949H161.867V33.7848ZM161.365 38.8881C160.983 39.2899 160.571 39.5109 160.119 39.5511C160.089 39.5612 160.049 39.5712 160.029 39.5712H159.878C159.426 39.5611 159.014 39.3703 158.642 38.9986C158.271 38.6269 158.08 38.0844 158.08 37.3611C158.08 37.331 158.08 37.2908 158.08 37.2506C158.08 37.2104 158.09 37.1703 158.11 37.12V37.0899C158.12 37.0296 158.13 36.9794 158.14 36.9392C158.14 36.889 158.14 36.8488 158.14 36.8187C158.2 36.2762 158.391 35.8342 158.713 35.4926C159.034 35.1511 159.456 34.9702 159.989 34.9702H160.32C160.893 35.0406 161.305 35.2917 161.556 35.7438C161.807 36.1858 161.927 36.678 161.927 37.2004C161.927 37.9337 161.736 38.5063 161.355 38.8981L161.365 38.8881Z" fill="#0066AA"/>
</svg>
